<svg width="148" height="28" viewBox="0 0 148 28" fill="none" xmlns="http://www.w3.org/2000/svg">
<path d="M7.386 7.864H2.274L2.874 4.96H16.386L15.762 7.864H10.674L7.674 22H4.362L7.386 7.864ZM17.0771 4.96H28.1171L27.5171 7.864H19.7411L18.8771 11.968H25.5731L24.9971 14.656H18.3011L17.3651 19.096H25.3331L24.7091 22H13.4531L17.0771 4.96ZM29.5121 4.96H36.3761C37.2401 4.96 37.9761 5.184 38.5841 5.632C39.2081 6.08 39.6801 6.664 40.0001 7.384C40.3201 8.104 40.4801 8.864 40.4801 9.664C40.4801 10.448 40.3121 11.24 39.9761 12.04C39.6401 12.824 39.1761 13.536 38.5841 14.176C38.0081 14.816 37.3281 15.328 36.5441 15.712C35.7761 16.096 34.9601 16.288 34.0961 16.288H30.3761L29.1761 22H25.8881L29.5121 4.96ZM34.4801 13.384C34.8161 13.384 35.1361 13.296 35.4401 13.12C35.7601 12.944 36.0401 12.704 36.2801 12.4C36.5361 12.08 36.7361 11.712 36.8801 11.296C37.0241 10.88 37.0961 10.424 37.0961 9.928C37.0961 9.496 37.0241 9.128 36.8801 8.824C36.7521 8.504 36.5681 8.264 36.3281 8.104C36.0881 7.944 35.8241 7.864 35.5361 7.864H32.1761L31.0001 13.384H34.4801ZM42.4862 4.984H45.7742L42.1502 22H38.8622L42.4862 4.984ZM47.8899 4.96H51.1779L49.7139 11.848H56.8179L58.2819 4.96H61.5699L57.9459 22H54.6579L56.1939 14.728H49.0899L47.5539 22H44.2659L47.8899 4.96ZM63.6765 4.96H70.5405C71.4045 4.96 72.1405 5.184 72.7485 5.632C73.3725 6.08 73.8445 6.664 74.1645 7.384C74.4845 8.104 74.6445 8.864 74.6445 9.664C74.6445 10.448 74.4765 11.24 74.1405 12.04C73.8045 12.824 73.3405 13.536 72.7485 14.176C72.1725 14.816 71.4925 15.328 70.7085 15.712C69.9405 16.096 69.1245 16.288 68.2605 16.288H64.5405L63.3405 22H60.0525L63.6765 4.96ZM68.6445 13.384C68.9805 13.384 69.3005 13.296 69.6045 13.12C69.9245 12.944 70.2045 12.704 70.4445 12.4C70.7005 12.08 70.9005 11.712 71.0445 11.296C71.1885 10.88 71.2605 10.424 71.2605 9.928C71.2605 9.496 71.1885 9.128 71.0445 8.824C70.9165 8.504 70.7325 8.264 70.4925 8.104C70.2525 7.944 69.9885 7.864 69.7005 7.864H66.3405L65.1645 13.384H68.6445ZM79.9626 22.12C78.9546 22.12 78.0586 21.928 77.2746 21.544C76.4906 21.16 75.8266 20.64 75.2826 19.984C74.7546 19.312 74.3546 18.552 74.0826 17.704C73.8106 16.856 73.6746 15.968 73.6746 15.04C73.6746 14.016 73.8506 13.008 74.2026 12.016C74.5546 11.008 75.0426 10.08 75.6666 9.232C76.3066 8.368 77.0506 7.608 77.8986 6.952C78.7466 6.296 79.6586 5.784 80.6346 5.416C81.6266 5.032 82.6506 4.84 83.7066 4.84C84.6986 4.84 85.5786 5.04 86.3466 5.44C87.1306 5.824 87.7866 6.352 88.3146 7.024C88.8586 7.696 89.2586 8.456 89.5146 9.304C89.7866 10.152 89.9226 11.04 89.9226 11.968C89.9226 12.992 89.7466 14 89.3946 14.992C89.0426 15.968 88.5546 16.888 87.9306 17.752C87.3066 18.616 86.5706 19.376 85.7226 20.032C84.8906 20.688 83.9786 21.2 82.9866 21.568C82.0106 21.936 81.0026 22.12 79.9626 22.12ZM80.6106 19.192C81.4906 19.192 82.2906 18.984 83.0106 18.568C83.7466 18.136 84.3786 17.576 84.9066 16.888C85.4506 16.2 85.8586 15.448 86.1306 14.632C86.4186 13.8 86.5626 12.992 86.5626 12.208C86.5626 11.408 86.4266 10.68 86.1546 10.024C85.8986 9.352 85.5066 8.816 84.9786 8.416C84.4666 8 83.8106 7.792 83.0106 7.792C82.1306 7.792 81.3226 8 80.5866 8.416C79.8666 8.832 79.2426 9.384 78.7146 10.072C78.1866 10.76 77.7706 11.52 77.4666 12.352C77.1786 13.168 77.0346 13.976 77.0346 14.776C77.0346 15.56 77.1626 16.288 77.4186 16.96C77.6906 17.632 78.0906 18.176 78.6186 18.592C79.1466 18.992 79.8106 19.192 80.6106 19.192ZM92.6949 4.96H96.2469L98.8149 14.656L105.535 4.96H109.063L105.439 22H102.151L104.551 10.72L98.7669 19.12H96.9669L94.7589 10.72L92.3589 22H89.0709L92.6949 4.96ZM111.177 4.96H122.217L121.617 7.864H113.841L112.977 11.968H119.673L119.097 14.656H112.401L111.465 19.096H119.433L118.809 22H107.553L111.177 4.96ZM119.988 22L123.612 4.96H130.812C131.676 4.96 132.412 5.184 133.02 5.632C133.628 6.08 134.092 6.664 134.412 7.384C134.748 8.104 134.916 8.864 134.916 9.664C134.916 10.288 134.812 10.904 134.604 11.512C134.412 12.104 134.132 12.664 133.764 13.192C133.396 13.72 132.964 14.192 132.468 14.608C131.988 15.024 131.46 15.352 130.884 15.592L133.188 22H129.444L127.428 16.288H124.476L123.276 22H119.988ZM128.916 13.384C129.252 13.384 129.572 13.296 129.876 13.12C130.18 12.928 130.452 12.68 130.692 12.376C130.948 12.056 131.148 11.696 131.292 11.296C131.436 10.88 131.508 10.448 131.508 10C131.508 9.584 131.436 9.216 131.292 8.896C131.164 8.576 130.98 8.328 130.74 8.152C130.516 7.96 130.26 7.864 129.972 7.864H126.276L125.1 13.384H128.916ZM137.57 4.984H140.858L137.234 22H133.946L137.57 4.984Z" fill="white"/>
<path d="M144.694 10.049C144.306 10.049 143.949 9.986 143.623 9.86C143.296 9.734 143.011 9.55667 142.769 9.328C142.531 9.09933 142.344 8.831 142.209 8.523C142.078 8.215 142.013 7.879 142.013 7.515C142.013 7.15567 142.078 6.822 142.209 6.514C142.344 6.206 142.531 5.94 142.769 5.716C143.011 5.48733 143.296 5.31 143.623 5.184C143.949 5.058 144.306 4.995 144.694 4.995C145.081 4.995 145.44 5.058 145.772 5.184C146.103 5.31 146.39 5.48733 146.633 5.716C146.88 5.94 147.071 6.206 147.207 6.514C147.347 6.822 147.417 7.15567 147.417 7.515C147.417 7.879 147.347 8.215 147.207 8.523C147.071 8.831 146.88 9.09933 146.633 9.328C146.39 9.55667 146.103 9.734 145.772 9.86C145.44 9.986 145.081 10.049 144.694 10.049ZM144.701 9.608C145.116 9.608 145.489 9.51933 145.821 9.342C146.152 9.16 146.413 8.91267 146.605 8.6C146.801 8.28733 146.899 7.93267 146.899 7.536C146.899 7.242 146.843 6.969 146.731 6.717C146.623 6.465 146.472 6.24333 146.276 6.052C146.08 5.86067 145.846 5.71133 145.576 5.604C145.31 5.49667 145.018 5.443 144.701 5.443C144.383 5.443 144.092 5.49667 143.826 5.604C143.56 5.71133 143.329 5.86067 143.133 6.052C142.941 6.23867 142.792 6.458 142.685 6.71C142.582 6.962 142.531 7.23267 142.531 7.522C142.531 7.81133 142.582 8.082 142.685 8.334C142.792 8.586 142.941 8.80767 143.133 8.999C143.329 9.19033 143.56 9.33967 143.826 9.447C144.092 9.55433 144.383 9.608 144.701 9.608ZM143.504 5.996H144.897C145.093 5.996 145.268 6.04967 145.422 6.157C145.576 6.25967 145.695 6.39033 145.779 6.549C145.867 6.70767 145.912 6.87333 145.912 7.046C145.912 7.15333 145.893 7.26067 145.856 7.368C145.818 7.47533 145.767 7.57333 145.702 7.662C145.641 7.75067 145.566 7.82767 145.478 7.893L146.15 8.992H145.121L144.554 8.075H144.428V8.992H143.504V5.996ZM144.799 7.333C144.85 7.333 144.897 7.31433 144.939 7.277C144.981 7.23967 145.002 7.16267 145.002 7.046C145.002 6.92 144.978 6.84067 144.932 6.808C144.885 6.77533 144.836 6.759 144.785 6.759H144.428V7.333H144.799Z" fill="white"/>
</svg>
