<svg width="20" height="20" viewBox="0 0 20 20" fill="none" xmlns="http://www.w3.org/2000/svg">
<rect width="20" height="20" rx="2" fill="white"/>
<path d="M3.875 3.375C3.59886 3.375 3.375 3.59886 3.375 3.875C3.375 4.15114 3.59886 4.375 3.875 4.375V3.375ZM5.4375 3.875L5.92257 3.75373C5.86693 3.53115 5.66693 3.375 5.4375 3.375V3.875ZM13.875 12.5C14.1511 12.5 14.375 12.2761 14.375 12C14.375 11.7239 14.1511 11.5 13.875 11.5V12.5ZM15.125 5.125L15.6101 5.24627C15.6474 5.0969 15.6139 4.93865 15.5191 4.81729C15.4244 4.69594 15.279 4.625 15.125 4.625V5.125ZM13.875 10.125V10.625C14.1044 10.625 14.3044 10.4689 14.3601 10.2463L13.875 10.125ZM3.875 4.375H5.4375V3.375H3.875V4.375ZM4.95243 3.99627L5.26493 5.24627L6.23507 5.00373L5.92257 3.75373L4.95243 3.99627ZM5.26493 5.24627L6.51493 10.2463L7.48507 10.0037L6.23507 5.00373L5.26493 5.24627ZM7 9.625H6.6875V10.625H7V9.625ZM6.6875 12.5H13.875V11.5H6.6875V12.5ZM5.25 11.0625C5.25 11.8564 5.89359 12.5 6.6875 12.5V11.5C6.44588 11.5 6.25 11.3041 6.25 11.0625H5.25ZM6.6875 9.625C5.89359 9.625 5.25 10.2686 5.25 11.0625H6.25C6.25 10.8209 6.44588 10.625 6.6875 10.625V9.625ZM5.75 5.625H15.125V4.625H5.75V5.625ZM14.6399 5.00373L13.3899 10.0037L14.3601 10.2463L15.6101 5.24627L14.6399 5.00373ZM13.875 9.625H7V10.625H13.875V9.625ZM13.375 14.5C13.375 14.569 13.319 14.625 13.25 14.625V15.625C13.8713 15.625 14.375 15.1213 14.375 14.5H13.375ZM13.25 14.625C13.181 14.625 13.125 14.569 13.125 14.5H12.125C12.125 15.1213 12.6287 15.625 13.25 15.625V14.625ZM13.125 14.5C13.125 14.431 13.181 14.375 13.25 14.375V13.375C12.6287 13.375 12.125 13.8787 12.125 14.5H13.125ZM13.25 14.375C13.319 14.375 13.375 14.431 13.375 14.5H14.375C14.375 13.8787 13.8713 13.375 13.25 13.375V14.375ZM7.125 14.5C7.125 14.569 7.06904 14.625 7 14.625V15.625C7.62132 15.625 8.125 15.1213 8.125 14.5H7.125ZM7 14.625C6.93096 14.625 6.875 14.569 6.875 14.5H5.875C5.875 15.1213 6.37868 15.625 7 15.625V14.625ZM6.875 14.5C6.875 14.431 6.93096 14.375 7 14.375V13.375C6.37868 13.375 5.875 13.8787 5.875 14.5H6.875ZM7 14.375C7.06904 14.375 7.125 14.431 7.125 14.5H8.125C8.125 13.8787 7.62132 13.375 7 13.375V14.375Z" fill="#1F1B1B"/>
</svg>
