<svg width="20" height="20" viewBox="0 0 20 20" fill="none" xmlns="http://www.w3.org/2000/svg">
<rect width="20" height="20" rx="2" fill="white"/>
<path d="M16.5105 12.8573L18 12.8571V10.4898L15.5 8.28571H13V12.8571M16.5105 12.8573C16.3635 12.5243 15.9666 12.2857 15.5 12.2857M16.5105 12.8573C16.55 12.9466 16.5714 13.0427 16.5714 13.1429M15.5 12.2857C15.0334 12.2857 14.6365 12.5243 14.4895 12.8573M15.5 12.2857C16.0917 12.2857 16.5714 12.6695 16.5714 13.1429M15.5 12.2857C14.9083 12.2857 14.4286 12.6695 14.4286 13.1429M14.4895 12.8573L13 12.8571M14.4895 12.8573C14.45 12.9466 14.4286 13.0427 14.4286 13.1429M13 12.8571V6H3M13 12.8571L7.93911 12.8573M7.93911 12.8573C7.79208 12.5243 7.39516 12.2857 6.92857 12.2857M7.93911 12.8573C7.97854 12.9466 8 13.0427 8 13.1429M6.92857 12.2857C6.46199 12.2857 6.06506 12.5243 5.91804 12.8573M6.92857 12.2857C7.52031 12.2857 8 12.6695 8 13.1429M6.92857 12.2857C6.33684 12.2857 5.85714 12.6695 5.85714 13.1429M5.91804 12.8573L5.14286 12.8571M5.91804 12.8573C5.8786 12.9466 5.85714 13.0427 5.85714 13.1429M16.5714 13.1429C16.5714 13.6162 16.0917 14 15.5 14C14.9083 14 14.4286 13.6162 14.4286 13.1429M8 13.1429C8 13.6162 7.52031 14 6.92857 14C6.33684 14 5.85714 13.6162 5.85714 13.1429M5.5 9.42857H4.42857M5.5 11.1429H5.14286M5.5 7.71429H3.71429" stroke="#1F1B1B" stroke-linecap="round"/>
</svg>
