<svg width="40" height="40" viewBox="0 0 40 40" fill="none" xmlns="http://www.w3.org/2000/svg">
<rect width="40" height="40" rx="4" fill="#505050"/>
<path d="M32.0211 25.7146L35 25.7143V20.9796L30 16.5714H25V25.7143M32.0211 25.7146C31.727 25.0486 30.9332 24.5714 30 24.5714M32.0211 25.7146C32.0999 25.8933 32.1429 26.0855 32.1429 26.2857M30 24.5714C29.0668 24.5714 28.273 25.0486 27.9789 25.7146M30 24.5714C31.1835 24.5714 32.1429 25.3389 32.1429 26.2857M30 24.5714C28.8165 24.5714 27.8571 25.3389 27.8571 26.2857M27.9789 25.7146L25 25.7143M27.9789 25.7146C27.9001 25.8933 27.8571 26.0855 27.8571 26.2857M25 25.7143V12H5M25 25.7143L14.8782 25.7146M14.8782 25.7146C14.5842 25.0486 13.7903 24.5714 12.8571 24.5714M14.8782 25.7146C14.9571 25.8933 15 26.0855 15 26.2857M12.8571 24.5714C11.924 24.5714 11.1301 25.0486 10.8361 25.7146M12.8571 24.5714C14.0406 24.5714 15 25.3389 15 26.2857M12.8571 24.5714C11.6737 24.5714 10.7143 25.3389 10.7143 26.2857M10.8361 25.7146L9.28571 25.7143M10.8361 25.7146C10.7572 25.8933 10.7143 26.0855 10.7143 26.2857M32.1429 26.2857C32.1429 27.2325 31.1835 28 30 28C28.8165 28 27.8571 27.2325 27.8571 26.2857M15 26.2857C15 27.2325 14.0406 28 12.8571 28C11.6737 28 10.7143 27.2325 10.7143 26.2857M10 18.8571H7.85714M10 22.2857H9.28571M10 15.4286H6.42857" stroke="white" stroke-linecap="round"/>
</svg>
