<svg width="45" height="25" viewBox="0 0 45 25" fill="none" xmlns="http://www.w3.org/2000/svg">
<path d="M39.7302 20.7148L44 20.7143V13.9082L36.8333 7.57143H29.6667V20.7143M39.7302 20.7148C39.3087 19.7574 38.1709 19.0714 36.8333 19.0714M39.7302 20.7148C39.8433 20.9716 39.9048 21.2479 39.9048 21.5357M36.8333 19.0714C35.4958 19.0714 34.3579 19.7574 33.9365 20.7148M36.8333 19.0714C38.5296 19.0714 39.9048 20.1747 39.9048 21.5357M36.8333 19.0714C35.137 19.0714 33.7619 20.1747 33.7619 21.5357M33.9365 20.7148L29.6667 20.7143M33.9365 20.7148C33.8234 20.9716 33.7619 21.2479 33.7619 21.5357M29.6667 20.7143V1H1M29.6667 20.7143L15.1588 20.7148M15.1588 20.7148C14.7373 19.7574 13.5994 19.0714 12.2619 19.0714M15.1588 20.7148C15.2718 20.9716 15.3333 21.2479 15.3333 21.5357M12.2619 19.0714C10.9244 19.0714 9.78651 19.7574 9.36503 20.7148M12.2619 19.0714C13.9582 19.0714 15.3333 20.1747 15.3333 21.5357M12.2619 19.0714C10.5656 19.0714 9.19048 20.1747 9.19048 21.5357M9.36503 20.7148L7.14286 20.7143M9.36503 20.7148C9.25199 20.9716 9.19048 21.2479 9.19048 21.5357M39.9048 21.5357C39.9048 22.8967 38.5296 24 36.8333 24C35.137 24 33.7619 22.8967 33.7619 21.5357M15.3333 21.5357C15.3333 22.8967 13.9582 24 12.2619 24C10.5656 24 9.19048 22.8967 9.19048 21.5357M8.16667 10.8571H5.09524M8.16667 15.7857H7.14286M8.16667 5.92857H3.04762" stroke="black" stroke-linecap="round"/>
</svg>
