<svg width="22" height="22" viewBox="0 0 22 22" fill="none" xmlns="http://www.w3.org/2000/svg">
<path d="M15.9603 14.4049L13.4743 10.1004L17.2304 7.92919L17.8547 9.0148L19.3094 11.5334C19.5697 11.9281 19.7084 12.3905 19.7084 12.8633C19.7084 13.3361 19.5697 13.7985 19.3094 14.1932C19.1031 14.5189 18.9186 14.8554 18.7286 15.1865C18.2346 16.0224 17.7515 16.8583 17.2576 17.6888C17.0707 18.024 16.7963 18.3021 16.4635 18.4933C16.1308 18.6845 15.7523 18.7817 15.3686 18.7744C14.9615 18.7744 14.549 18.7744 14.1419 18.7744H13.9573V20.7394H13.9194C13.7566 20.4517 13.5882 20.1966 13.4254 19.8872C12.821 18.8378 12.2168 17.7938 11.6125 16.7552C11.5768 16.7074 11.5575 16.6493 11.5575 16.5897C11.5575 16.53 11.5768 16.4719 11.6125 16.4241C12.367 15.1268 13.1106 13.8295 13.8596 12.5322L13.9573 12.3856V14.394L15.9603 14.4049ZM14.4024 10.3338C14.4002 10.3518 14.4002 10.3701 14.4024 10.3881L16.6768 14.318C16.6987 14.3453 16.7259 14.368 16.7567 14.3847C16.7874 14.4015 16.8211 14.412 16.8559 14.4157C17.0839 14.4157 17.3065 14.4157 17.5344 14.4157C17.8998 14.4255 18.2559 14.2993 18.5336 14.0617C18.8114 13.824 18.9911 13.4918 19.038 13.1293C19.0762 12.6778 18.9615 12.2266 18.7123 11.8482L17.0514 8.97681L16.9645 8.84653L14.4024 10.3338ZM18.0609 15.0562H13.4525V14.2909C13.0074 15.0671 12.5841 15.789 12.1716 16.5218C12.1572 16.5504 12.1497 16.582 12.1497 16.6141C12.1497 16.6461 12.1572 16.6777 12.1716 16.7064C12.557 17.3849 12.9532 18.0688 13.3494 18.7473L13.4525 18.8884V18.1122H15.3578C15.6298 18.119 15.8984 18.0512 16.1347 17.9163C16.371 17.7814 16.566 17.5845 16.6985 17.3469L17.0351 16.7715L18.0609 15.0562Z" fill="black"/>
<path d="M11.9217 7.44609L10.9176 5.69826L8.42068 10.0136L4.66994 7.84235L5.16385 6.97928L6.73806 4.26525C6.90094 3.93291 7.13939 3.6434 7.43446 3.41997C7.72953 3.19655 8.07292 3.04545 8.43698 2.9788C8.82988 2.93616 9.22543 2.92345 9.62026 2.9408H13.0508C13.3816 2.92997 13.7103 2.99646 14.0109 3.13498C14.3115 3.2735 14.5757 3.48022 14.7823 3.73873C14.9653 3.98725 15.1305 4.24845 15.2764 4.52037C15.4175 4.7592 15.5587 5.00347 15.6998 5.25316L17.4422 4.2544L17.377 4.40639C16.617 5.70912 15.8608 7.01547 15.1081 8.32544C15.0894 8.36665 15.0586 8.40119 15.0198 8.42446C14.981 8.44773 14.9362 8.45863 14.891 8.45571H10.3748C10.326 8.45691 10.2782 8.44161 10.2391 8.41228L11.9217 7.44609ZM8.16558 9.07451C8.16558 9.07451 8.19818 9.07451 8.20361 9.04194C8.96354 7.72292 9.72887 6.40934 10.4834 5.09032C10.4942 5.06644 10.4998 5.04053 10.4998 5.01432C10.4998 4.98812 10.4942 4.96221 10.4834 4.93833C10.3639 4.71035 10.2391 4.48238 10.1034 4.27068C9.9966 4.08329 9.84907 3.92221 9.67181 3.79929C9.49455 3.67637 9.292 3.59473 9.07904 3.56036C8.86609 3.526 8.64815 3.53978 8.44122 3.60071C8.23429 3.66163 8.04366 3.76815 7.88331 3.91243C7.66686 4.09732 7.48333 4.31756 7.3405 4.5638C6.76513 5.52999 6.21154 6.50704 5.64702 7.47866C5.62877 7.51578 5.61242 7.55383 5.59812 7.59265L8.16558 9.07451ZM15.3686 6.00223L14.4241 4.35753C14.3024 4.12887 14.1221 3.93658 13.9019 3.80023C13.6816 3.66387 13.4292 3.58834 13.1702 3.58132C12.2909 3.58132 11.4116 3.58132 10.5323 3.58132C10.5142 3.57992 10.496 3.57992 10.4779 3.58132L12.7686 7.53294L12.1118 7.91834H14.6412C14.715 7.90188 14.7794 7.85702 14.8204 7.79349C15.1352 7.25068 15.4446 6.70788 15.754 6.16507L16.0471 5.65483L15.3686 6.00223Z" fill="black"/>
<path d="M10.8687 18.7473H6.68909C6.23182 18.7683 5.77814 18.6578 5.38177 18.4289C4.9854 18.1999 4.66289 17.8621 4.45266 17.4554C3.79587 16.2667 3.10653 15.0997 2.43888 13.9163C2.23704 13.5793 2.1305 13.1938 2.1305 12.8009C2.1305 12.408 2.23704 12.0225 2.43888 11.6854L3.12825 10.4912L1.375 9.48162H6.07578C6.12609 9.477 6.17648 9.48809 6.22023 9.51336C6.26397 9.53864 6.2989 9.57686 6.32002 9.62276L8.58347 13.5472C8.58347 13.5798 8.62142 13.6178 8.67027 13.7046L6.90616 12.6896L5.89661 14.432H10.8632L10.8687 18.7473ZM10.2119 15.0942H5.63064C5.59556 15.0987 5.56177 15.1107 5.53178 15.1294C5.50179 15.1482 5.47627 15.1732 5.45691 15.2028C5.33387 15.4018 5.2145 15.6081 5.0987 15.8216C4.94422 16.0915 4.87792 16.403 4.90907 16.7125C4.94021 17.0219 5.06713 17.314 5.27231 17.5477C5.43421 17.7221 5.63103 17.8605 5.84983 17.954C6.06864 18.0475 6.3046 18.094 6.54252 18.0905C7.73669 18.0905 8.92548 18.0905 10.1142 18.0905H10.2119V15.0942ZM4.3008 15.8976C5.02273 14.5406 5.82605 13.2433 6.57512 11.9134L7.20472 12.2716C7.20321 12.2098 7.18449 12.1496 7.15052 12.0979C6.77056 11.4412 6.39055 10.7898 6.01601 10.1276C5.99459 10.0807 5.95895 10.0418 5.9141 10.0165C5.86926 9.99115 5.81753 9.98063 5.76634 9.98644H3.28025L3.94789 10.3827C3.9099 10.4532 3.88279 10.513 3.85022 10.5672C3.56797 11.0558 3.28025 11.5443 3.00342 12.0382C2.85473 12.2768 2.77588 12.5523 2.77588 12.8334C2.77588 13.1146 2.85473 13.3901 3.00342 13.6287C3.37252 14.2637 3.73078 14.9043 4.08903 15.5393L4.3008 15.8976Z" fill="black"/>
</svg>
