<svg width="20" height="20" viewBox="0 0 20 20" fill="none" xmlns="http://www.w3.org/2000/svg">
<rect width="20" height="20" rx="2" fill="white"/>
<path fill-rule="evenodd" clip-rule="evenodd" d="M16.9279 5.3302C16.9736 5.29467 17 5.24223 17 5.18695C17 5.0837 16.9097 5 16.7983 5H3.31312C3.14019 5 3 5.12994 3 5.29022C3 5.3765 3.04142 5.45831 3.11301 5.51345L9.68702 10.5762C9.83028 10.6866 10.0382 10.6861 10.1809 10.5752L16.9279 5.3302ZM3.63157 6.99625C3.3805 6.80289 3 6.96838 3 7.27094V14.6429C3 14.8401 3.17251 15 3.38532 15H16.6147C16.8275 15 17 14.8401 17 14.6429V7.12745C17 6.82413 16.6178 6.65889 16.3671 6.85381L10.2247 11.6288L10.1836 11.6607C10.0409 11.7716 9.83298 11.7721 9.68973 11.6618L9.64849 11.63L3.63157 6.99625Z" fill="#1F1B1B"/>
</svg>
