<svg width="21" height="20" viewBox="0 0 21 20" fill="none" xmlns="http://www.w3.org/2000/svg">
<path d="M20.3633 2C20.3633 0.895431 19.4679 0 18.3633 0H1.99964C0.895075 0 -0.000354767 0.895431 -0.000354767 2V18C-0.000354767 19.1046 0.895075 20 1.99965 20H18.3633C19.4679 20 20.3633 19.1046 20.3633 18V2Z" fill="white"/>
<path d="M6.1587 9.07676C6.69277 8.81252 7.34636 9.08168 7.5658 9.61549C8.16401 11.0707 8.9237 11.9013 10.2915 12.5978C10.8674 12.891 11.0912 13.5896 10.713 14.0895C10.4346 14.4574 9.91542 14.5923 9.49732 14.3668C7.45948 13.2674 6.32903 11.6107 5.71976 10.1259C5.55396 9.72187 5.75455 9.27673 6.1587 9.07676Z" fill="#1F1B1B"/>
<path d="M8.25301 4.8798C8.77742 4.84763 9.14792 5.25452 9.08034 5.74327C8.97398 6.5124 8.9977 7.06154 9.11411 7.73722C9.17805 8.10837 8.95269 8.50202 8.61819 8.76646C8.16733 9.12288 7.81181 9.56444 7.52742 9.94331C7.13324 10.4684 5.89268 10.5037 5.65376 9.97003C5.16274 8.87329 4.91604 6.8149 5.83294 5.36191C5.97696 5.13368 6.24544 5.00294 6.51586 4.98635L8.25301 4.8798Z" fill="#1F1B1B"/>
<path d="M15.6636 12.7793C15.7605 12.2915 15.3773 11.8952 14.8554 11.8998C14.0342 11.907 13.4598 11.8187 12.7635 11.6283C12.3811 11.5237 11.9402 11.6877 11.622 11.9695C11.1931 12.3493 10.6862 12.6296 10.2537 12.8506C9.65428 13.157 9.46805 14.3159 10.0003 14.6041C11.0941 15.1963 13.2282 15.6752 14.8658 14.9902C15.123 14.8827 15.2927 14.6467 15.3427 14.3951L15.6636 12.7793Z" fill="#1F1B1B"/>
</svg>
