<svg width="40" height="40" viewBox="0 0 40 40" fill="none" xmlns="http://www.w3.org/2000/svg">
<rect width="40" height="40" rx="4" fill="#505050"/>
<path d="M20 10C14.673 10 10 14.673 10 20C10 25.327 14.673 30 20 30C25.327 30 30 25.327 30 20C30 14.673 25.327 10 20 10ZM27.145 25.8587L26.5964 25.4473L25.981 24.2166L25.6619 22.9453L25.3286 20.9453C25.3112 20.84 25.2445 20.7495 25.1489 20.7017L23.8156 20.035C23.7445 19.9993 23.6629 19.9904 23.5856 20.0099L22.3857 20.3101L20.9697 19.46L20.6851 17.7526L21.5 16.6667H22.862L23.7643 17.569C23.8429 17.6475 23.9554 17.6815 24.0643 17.66L25.7 17.3333H27.6667C27.7424 17.3333 27.8159 17.3076 27.875 17.2603L28.6536 16.6374C29.0983 17.7028 29.3293 18.8454 29.3333 20C29.3102 22.1484 28.5361 24.2212 27.145 25.8587ZM26.7116 13.6587L26.2017 14.2964L23.4046 13.6743C23.339 13.6603 23.2708 13.6659 23.2083 13.6903L21.6667 14.3076L20.6549 13.903L21.8363 12.9577L23.4574 12.3097C23.4992 12.2926 23.5371 12.2676 23.569 12.2357L24.1107 11.694C25.0809 12.2002 25.9601 12.8641 26.7127 13.6587H26.7116ZM14.3973 12.6514L15.2096 12.9764C15.249 12.992 15.291 13 15.3333 13H17.5933L17.3667 14.1333L16.4813 14.7236C16.4196 14.7648 16.3734 14.8254 16.3499 14.8957L16.0309 15.8534L15.4883 16.6667H14.6667C14.6009 16.6668 14.5365 16.6862 14.4816 16.7227L12.4816 18.056C12.4334 18.0882 12.3944 18.1325 12.3683 18.1844L12.035 18.8511C11.9956 18.93 11.9891 19.0215 12.0169 19.1053L12.3503 20.1053C12.3864 20.2134 12.4751 20.2957 12.5856 20.3234L13.7703 20.6193L13.7939 20.6667H10.9077C10.841 20.5996 10.765 20.5426 10.682 20.4974C10.6724 20.3333 10.6667 20.1667 10.6667 20C10.7199 17.1086 12.0946 14.4007 14.3973 12.6514ZM17 25H15.9269L15.6567 23.9193C15.6421 23.8607 15.6118 23.8071 15.569 23.7643L14.7624 22.9577L15.2773 22.1851C15.2936 22.1602 15.3066 22.1335 15.3164 22.1053L15.5916 21.279L16.533 21.0436L17.4001 22.2C17.5062 22.3416 17.7044 22.3755 17.8517 22.2773L18.7057 21.708L19.939 22.2013L19.6763 23.2526C19.6538 23.3426 19.6698 23.4378 19.7204 23.5155C19.771 23.5931 19.8517 23.6462 19.943 23.6619L21.6667 23.9491V24.3333H20.3333C20.2284 24.3333 20.1296 24.3828 20.0667 24.4666L19.0667 25.8C18.9818 25.9131 18.9775 26.0674 19.056 26.1851L19.571 26.9577L18.431 28.0977C18.3846 28.144 18.353 28.2031 18.34 28.2673L18.1647 29.134C17.7718 29.0475 17.3851 28.9347 17.0073 28.7967L17.2357 28.5684C17.298 28.506 17.3332 28.4216 17.3333 28.3333V25.3333C17.3333 25.1493 17.1841 25 17 25ZM20 29.3333C19.6058 29.3324 19.2121 29.304 18.8216 29.2487L18.9733 28.498L20.2357 27.2357C20.348 27.1234 20.3656 26.9473 20.2773 26.8149L19.7417 26.0114L20.5 25H22C22.1841 25 22.3333 24.8507 22.3333 24.6667V23.6667C22.3333 23.5039 22.2157 23.3649 22.055 23.3381L20.411 23.0636L20.6567 22.0807C20.6971 21.9188 20.6117 21.7521 20.4567 21.6903L18.79 21.0236C18.6878 20.9831 18.5723 20.9956 18.481 21.057L17.7433 21.549L16.9333 20.4666C16.8529 20.3594 16.7158 20.3107 16.5856 20.3433L15.2523 20.6766C15.1418 20.7043 15.0531 20.7866 15.0169 20.8947L14.6981 21.8524L14.056 22.8149C13.9678 22.9473 13.9854 23.1234 14.0977 23.2357L15.0309 24.1707L15.342 25.4141C15.3791 25.563 15.5132 25.6673 15.6667 25.6667H16.6667V28.1953L16.3377 28.5244C13.4079 27.1947 11.3247 24.5029 10.7723 21.3333H14.3333C14.4489 21.3333 14.5562 21.2736 14.617 21.1753C14.6777 21.0771 14.6833 20.9544 14.6317 20.8511L14.2983 20.1844C14.2549 20.0973 14.1755 20.0335 14.0811 20.0099L12.925 19.721L12.6917 19.0257L12.925 18.5617L14.7666 17.3333H15.6667C15.7782 17.3333 15.8822 17.2777 15.944 17.1851L16.6107 16.1851C16.627 16.1602 16.64 16.1335 16.6497 16.1053L16.9466 15.214L17.8517 14.6107C17.9251 14.5615 17.9761 14.4854 17.9933 14.3986L18.3267 12.7319C18.3462 12.6341 18.321 12.5326 18.2577 12.4554C18.1943 12.3783 18.0998 12.3333 18 12.3333H15.3973L15.0417 12.1911C16.5103 11.21 18.2339 10.6802 20 10.6667C21.1942 10.6707 22.375 10.9172 23.471 11.391L23.146 11.7157L21.5426 12.3569C21.5124 12.3695 21.484 12.3861 21.4583 12.4064L19.7917 13.7397C19.6989 13.8138 19.6525 13.9315 19.6699 14.049C19.6873 14.1663 19.7658 14.2656 19.876 14.3097L21.5426 14.9764C21.6222 15.008 21.7111 15.008 21.7907 14.9764L23.3613 14.3477L26.2614 14.9924C26.285 14.9974 26.3091 14.9998 26.3333 15C26.4346 15 26.5304 14.9541 26.5936 14.875L27.1626 14.1637C27.6336 14.7316 28.0386 15.3512 28.3696 16.0107L27.5496 16.6667H25.6667C25.6442 16.6667 25.6219 16.6689 25.5999 16.6733L24.1084 16.9714L23.2344 16.0977C23.1722 16.0355 23.0879 16.0003 23 16H21.3333C21.2284 16 21.1296 16.0495 21.0667 16.1333L20.0667 17.4666C20.012 17.5396 19.9897 17.6315 20.0047 17.7214L20.3381 19.7214C20.354 19.8175 20.4113 19.902 20.495 19.9523L22.1616 20.9523C22.2375 20.9979 22.3285 21.0116 22.4144 20.9901L23.6279 20.6867L24.7 21.2223L25.0107 23.0807L25.3441 24.4141C25.3498 24.4377 25.3582 24.4606 25.369 24.4823L26.0356 25.8156C26.0594 25.8621 26.0936 25.9023 26.1357 25.9333L26.7004 26.3566C24.966 28.2205 22.5457 29.2957 20 29.3333Z" fill="white"/>
</svg>
