<svg width="39" height="34" viewBox="0 0 39 34" fill="none" xmlns="http://www.w3.org/2000/svg">
<mask id="path-1-inside-1_74_9" fill="white">
<path fill-rule="evenodd" clip-rule="evenodd" d="M4.22785 3.20854C0.0278308 7.20098 -0.14044 13.8423 3.85201 18.0423L4.83697 19.0785L4.83694 19.0785L18.9181 33.8917L18.9181 33.8917L18.9181 33.8917L34.1277 19.4338L34.1277 19.4337L35.5933 18.0405C39.6839 14.1521 39.8478 7.68391 35.9594 3.59337C32.071 -0.497183 25.6028 -0.661067 21.5122 3.22732L20.0466 4.62054L19.0616 3.58437C15.0692 -0.615641 8.42786 -0.78391 4.22785 3.20854Z"/>
</mask>
<path fill-rule="evenodd" clip-rule="evenodd" d="M4.22785 3.20854C0.0278308 7.20098 -0.14044 13.8423 3.85201 18.0423L4.83697 19.0785L4.83694 19.0785L18.9181 33.8917L18.9181 33.8917L18.9181 33.8917L34.1277 19.4338L34.1277 19.4337L35.5933 18.0405C39.6839 14.1521 39.8478 7.68391 35.9594 3.59337C32.071 -0.497183 25.6028 -0.661067 21.5122 3.22732L20.0466 4.62054L19.0616 3.58437C15.0692 -0.615641 8.42786 -0.78391 4.22785 3.20854Z" fill="white"/>
<path d="M4.83697 19.0785L5.52594 19.8033L6.25073 19.1143L5.56176 18.3895L4.83697 19.0785ZM4.83694 19.0785L4.14797 18.3537L3.42318 19.0427L4.11215 19.7675L4.83694 19.0785ZM18.9181 33.8917L18.1933 34.5806L18.8822 35.3054L19.607 34.6165L18.9181 33.8917ZM18.9181 33.8917L19.6429 33.2027L18.9539 32.4779L18.2291 33.1669L18.9181 33.8917ZM18.9181 33.8917L18.1933 34.5807L18.8823 35.3055L19.6071 34.6165L18.9181 33.8917ZM34.1277 19.4338L34.8167 20.1586L35.5415 19.4696L34.8525 18.7448L34.1277 19.4338ZM34.1277 19.4337L33.4387 18.7089L32.7139 19.3979L33.4029 20.1227L34.1277 19.4337ZM21.5122 3.22732L20.8232 2.50253L20.8232 2.50253L21.5122 3.22732ZM20.0466 4.62054L19.3218 5.30951L20.0107 6.0343L20.7355 5.34533L20.0466 4.62054ZM4.5768 17.3533C0.964858 13.5536 1.11709 7.54527 4.91682 3.93333L3.53888 2.48375C-1.06143 6.8567 -1.24574 14.131 3.12722 18.7313L4.5768 17.3533ZM5.56176 18.3895L4.5768 17.3533L3.12722 18.7313L4.11218 19.7674L5.56176 18.3895ZM5.52591 19.8033L5.52594 19.8033L4.148 18.3537L4.14797 18.3537L5.52591 19.8033ZM19.6428 33.2027L5.56173 18.3895L4.11215 19.7675L18.1933 34.5806L19.6428 33.2027ZM18.2291 33.1669L18.2291 33.1669L19.607 34.6165L19.607 34.6164L18.2291 33.1669ZM19.6429 33.2027L19.6429 33.2027L18.1933 34.5806L18.1933 34.5807L19.6429 33.2027ZM33.4388 18.709L18.2292 33.1669L19.6071 34.6165L34.8167 20.1586L33.4388 18.709ZM33.4029 20.1227L33.4029 20.1228L34.8525 18.7448L34.8525 18.7448L33.4029 20.1227ZM34.9044 17.3157L33.4387 18.7089L34.8166 20.1585L36.2823 18.7653L34.9044 17.3157ZM35.2346 4.28234C38.7425 7.97259 38.5946 13.8078 34.9044 17.3157L36.2823 18.7653C40.7731 14.4964 40.9531 7.39523 36.6842 2.9044L35.2346 4.28234ZM22.2012 3.95211C25.8914 0.444231 31.7267 0.592077 35.2346 4.28234L36.6842 2.9044C32.4153 -1.58644 25.3141 -1.76636 20.8232 2.50253L22.2012 3.95211ZM20.7355 5.34533L22.2012 3.95211L20.8232 2.50253L19.3576 3.89575L20.7355 5.34533ZM18.3368 4.27334L19.3218 5.30951L20.7714 3.93157L19.7864 2.8954L18.3368 4.27334ZM4.91682 3.93333C8.71654 0.321388 14.7249 0.473619 18.3368 4.27334L19.7864 2.8954C15.4134 -1.7049 8.13918 -1.88921 3.53888 2.48375L4.91682 3.93333Z" fill="black" mask="url(#path-1-inside-1_74_9)"/>
</svg>
