<svg width="20" height="20" viewBox="0 0 20 20" fill="none" xmlns="http://www.w3.org/2000/svg">
<rect width="20" height="20" rx="2" fill="white"/>
<path d="M10.7067 10.8136V13.9877C10.7067 14.5468 10.2534 15 9.69435 15C9.13526 15 8.68202 14.5468 8.68202 13.9877V11.6546C8.68202 11.1901 8.30549 10.8136 7.84101 10.8136C7.37653 10.8136 7 10.4293 7 9.96487C7 9.50039 7.37653 9.11612 7.84101 9.11612H8.06442C8.40551 9.11612 8.68202 8.83961 8.68202 8.49852C8.68202 6.20562 9.69046 5 11.8241 5C12.0423 5 12.2059 5.01111 12.3404 5.02894C12.7333 5.08104 13 5.46251 13 5.85887V5.92211C13 6.4133 12.5606 6.75666 12.0694 6.75666C11.575 6.75666 11.3102 6.88979 11.0688 7.15237C10.8274 7.41494 10.7067 7.86982 10.7067 8.52071C10.7067 8.85159 10.9749 9.11982 11.3058 9.11982H11.7896C12.3783 9.11982 12.7882 9.70437 12.5876 10.2578C12.4659 10.5936 12.1469 10.8173 11.7896 10.8173H10.7104C10.7083 10.8173 10.7067 10.8157 10.7067 10.8136Z" fill="#1F1B1B"/>
</svg>
