<svg width="20" height="20" viewBox="0 0 20 20" fill="none" xmlns="http://www.w3.org/2000/svg">
<rect width="20" height="20" rx="2" fill="white"/>
<path d="M13.4011 4H7.13774C5.40735 4 4 5.40731 4 7.13765V12.8676C4 14.598 5.40735 16.0053 7.13774 16.0053H13.4011C15.1315 16.0053 16.5389 14.598 16.5389 12.8676V7.13765C16.5389 5.40731 15.1315 4 13.4011 4ZM5.10676 7.13765C5.10676 6.01768 6.01773 5.10673 7.13774 5.10673H13.4011C14.5211 5.10673 15.4321 6.01768 15.4321 7.13765V12.8676C15.4321 13.9876 14.5211 14.8986 13.4011 14.8986H7.13774C6.01773 14.8986 5.10676 13.9876 5.10676 12.8676V7.13765Z" fill="#1F1B1B"/>
<path d="M10.2695 12.9217C11.879 12.9217 13.1884 11.6122 13.1884 10.0028C13.1884 8.3934 11.879 7.08398 10.2695 7.08398C8.66005 7.08398 7.35059 8.3934 7.35059 10.0028C7.35059 11.6122 8.66005 12.9217 10.2695 12.9217ZM10.2695 8.19129C11.2686 8.19129 12.0811 9.00377 12.0811 10.0028C12.0811 11.0019 11.2686 11.8144 10.2695 11.8144C9.27044 11.8144 8.45792 11.0019 8.45792 10.0028C8.45792 9.00377 9.27044 8.19129 10.2695 8.19129Z" fill="#1F1B1B"/>
<path d="M13.4585 7.55557C13.8921 7.55557 14.2451 7.20259 14.2451 6.76899C14.2451 6.3354 13.8921 5.98242 13.4585 5.98242C13.0249 5.98242 12.6719 6.3354 12.6719 6.76899C12.6719 7.20259 13.0249 7.55557 13.4585 7.55557Z" fill="#1F1B1B"/>
</svg>
