<svg width="20" height="20" viewBox="0 0 20 20" fill="none" xmlns="http://www.w3.org/2000/svg">
<rect width="20" height="20" rx="2" fill="white"/>
<path d="M14.6073 6.68621V8.59678C14.2727 8.56453 13.8397 8.48853 13.3589 8.31233C12.7318 8.08257 12.2648 7.76817 11.9596 7.5246V11.3872L11.9521 11.3751C11.9573 11.4517 11.9596 11.5294 11.9596 11.6083C11.9596 13.527 10.3991 15.088 8.47978 15.088C6.56052 15.088 5 13.5264 5 11.6083C5 9.69027 6.56052 8.12806 8.47978 8.12806C8.66751 8.12806 8.85178 8.14303 9.03202 8.17183V10.0553C8.85869 9.99315 8.67326 9.95975 8.47978 9.95975C7.57111 9.95975 6.83117 10.6991 6.83117 11.6083C6.83117 12.5175 7.57111 13.2569 8.47978 13.2569C9.38846 13.2569 10.1284 12.517 10.1284 11.6083C10.1284 11.5744 10.1278 11.5404 10.1255 11.5064V4H12.0356C12.0425 4.16181 12.0494 4.32476 12.0557 4.48657C12.0684 4.805 12.1818 5.11076 12.3794 5.36124C12.6114 5.65549 12.9535 5.99752 13.4349 6.27046C13.8852 6.52555 14.3078 6.63438 14.6073 6.68621Z" fill="#1F1B1B"/>
</svg>
